<?xml version="1.0" encoding="UTF-8" standalone="no"?>
<svg
   xmlns:dc="http://purl.org/dc/elements/1.1/"
   xmlns:cc="http://creativecommons.org/ns#"
   xmlns:rdf="http://www.w3.org/1999/02/22-rdf-syntax-ns#"
   xmlns:svg="http://www.w3.org/2000/svg"
   xmlns="http://www.w3.org/2000/svg"
   xmlns:xlink="http://www.w3.org/1999/xlink"
   width="210mm"
   height="297mm"
   viewBox="0 0 210 297"
   version="1.1"
   id="svg8">
  <defs
     id="defs2" />
  <metadata
     id="metadata5">
    <rdf:RDF>
      <cc:Work
         rdf:about="">
        <dc:format>image/svg+xml</dc:format>
        <dc:type
           rdf:resource="http://purl.org/dc/dcmitype/StillImage" />
        <dc:title></dc:title>
      </cc:Work>
    </rdf:RDF>
  </metadata>
  <g
     id="layer2"
      fill={PRIMARY_MAIN} fillRule="evenodd" stroke="none" >
    <path
       style="fill:none;stroke:#000000;stroke-width:0.0812967px;stroke-linecap:butt;stroke-linejoin:miter;stroke-opacity:1"
       d="m 52.696343,96.227415 7.868368,0.11614 0.145172,-10.33632 -3.9487,-5.255255 c 0,0 -0.203242,-1.509793 1.422692,-1.27752 l 2.700219,3.571252 1.190418,-11.846104 -2.932493,-4.500361 c 0,0 -0.276494,-1.121412 0.435517,-1.335591 1.092168,-0.328534 1.309727,0.546296 1.684005,1.103314 0.700657,1.042756 1.306558,1.945317 1.306558,1.945317 l 1.771108,-9.465272 -2.177593,-3.077664 c 0,0 -0.464556,-1.65497 1.39366,-1.335591 l 1.393661,1.713041 3.9487,-13.268802 c 0,0 -20.400682,23.040345 -16.201292,53.249416 z"
       id="path46" />
    <path
       style="opacity:0.7;fill:#241c1c;stroke-width:0.0821221"
       d="m 56.308353,96.209495 c -1.887574,-0.0302 -3.462692,-0.0885 -3.500261,-0.12954 -0.06351,-0.0695 -0.222163,-1.34647 -0.422449,-3.40062 -0.14154,-1.451636 -0.19173,-6.197863 -0.08466,-8.006916 0.340622,-5.755645 1.394616,-11.302951 3.212214,-16.906284 2.511712,-7.743131 6.744246,-15.92688 11.515709,-22.265991 1.283911,-1.705736 1.654004,-2.144591 1.580833,-1.874569 -0.04252,0.15681 -3.624507,12.20681 -3.676,12.366181 -0.01103,0.03415 -0.324738,-0.307682 -0.697116,-0.759631 L 63.559577,54.4104 h -0.377959 c -0.761657,0 -1.146657,0.362081 -1.136141,1.0685 0.0053,0.359466 0.08066,0.492368 1.088122,1.920416 0.595306,0.843823 1.082369,1.581036 1.082369,1.638251 0,0.08084 -1.553182,8.472501 -1.666726,9.005115 -0.01442,0.06775 -0.422881,-0.476284 -0.907646,-1.208965 -0.484758,-0.73268 -0.962023,-1.388632 -1.060585,-1.457668 -0.106607,-0.07468 -0.357337,-0.125521 -0.618923,-0.125521 -0.37651,0 -0.474222,0.0345 -0.67977,0.240049 -0.212045,0.212049 -0.240047,0.297605 -0.240047,0.733481 v 0.493432 l 1.471469,2.254766 1.471475,2.254764 -0.567416,5.65511 c -0.312076,3.110315 -0.567735,5.723657 -0.568127,5.807441 -4.06e-4,0.08378 -0.585194,-0.618367 -1.299563,-1.560327 -1.20409,-1.587685 -1.319427,-1.714627 -1.580852,-1.739957 -0.701402,-0.06794 -1.183496,0.307235 -1.277673,0.99433 l -0.05002,0.365082 1.988799,2.649082 1.988806,2.649083 -0.06066,5.122925 -0.06066,5.122926 -0.378742,-0.0141 c -0.208305,-0.008 -1.923123,-0.0389 -3.810696,-0.0691 z"
       id="path48" />
    <path
       style="fill:none;stroke:#000000;stroke-width:0.0812967px;stroke-linecap:butt;stroke-linejoin:miter;stroke-opacity:1"
       d="m 65.888111,57.823396 0.944405,1.026527 6.282347,-8.006912 c 0,0 3.490194,-13.098487 7.596303,-20.160994 l -9.402993,9.320866 c 0,0 -5.502181,16.629742 -5.420062,17.820513 z"
       id="path50" />
    <path
       style="fill:none;stroke:#000000;stroke-width:0.0812967px;stroke-linecap:butt;stroke-linejoin:miter;stroke-opacity:1"
       d="m 65.354317,60.410245 1.642444,2.217299 5.050515,-6.77508 -1.929873,12.523633 -3.900801,5.214757 -2.545785,-3.736562 z"
       id="path52" />
    <path
       style="fill:none;stroke:#000000;stroke-width:0.0812967px;stroke-linecap:butt;stroke-linejoin:miter;stroke-opacity:1"
       d="m 62.151556,84.595229 3.49019,4.886261 4.10611,-5.050508 0.08212,-12.113024 -3.613373,4.722033 -2.956396,-4.106113 z"
       id="path54" />
    <path
       style="fill:none;stroke:#000000;stroke-width:0.0812967px;stroke-linecap:butt;stroke-linejoin:miter;stroke-opacity:1"
       d="m 61.782001,96.256575 h 9.156624 l -1.10865,-8.622824 -4.023983,4.968384 -3.777619,-4.886269 z"
       id="path56" />
    <path
       style="fill:none;stroke:#000000;stroke-width:0.0812967px;stroke-linecap:butt;stroke-linejoin:miter;stroke-opacity:1"
       d="m 75.373225,47.76343 c 0,0 5.666431,-16.711863 8.047973,-19.380834 l 8.599551,-6.455166 9.344141,-6.273771 c 0,0 -31.509112,30.460075 -12.69471,80.399536 l -16.458659,0.24444 -0.944404,-10.470574 7.924788,-9.526175 c 0,0 0.615917,-1.970929 -1.519259,-1.396072 l -6.775084,7.965849 0.328492,-12.811061 7.678424,-10.018907 c 0,0 0.451673,-1.88881 -1.4782,-1.519261 l -5.789613,7.678424 c 0,0 1.683505,-12.11302 2.340482,-13.016364 0.656978,-0.903345 8.540707,-11.456045 8.540707,-11.456045 0,0 0.574855,-1.92987 -1.51926,-1.396076 z"
       id="path58" />
    <path
       style="fill:none;stroke:#000000;stroke-width:0.0812967px;stroke-linecap:butt;stroke-linejoin:miter;stroke-opacity:1"
       d="m 94.261325,98.350695 c 0,0 -20.366299,-41.061092 2.792155,-70.625076 0,0 25.29363,-36.13376 72.51388,1.478199 0,0 60.3598,54.611248 17.65628,107.497932 0,0 25.69014,-38.919075 -13.63229,-84.421601 -13.40768,-15.51488 -26.92766,-19.978107 -37.56636,-21.587067 -18.96029,-2.867487 -31.16683,7.583474 -32.77129,9.556168 -2.64828,3.256082 -19.504014,17.779449 -8.992375,58.101445 z"
       id="path62" />
    <path
       style="opacity:0.7;fill:#241c1c;stroke-width:0.116138"
       d="m 61.94054,93.895625 c 0.03826,-1.22962 0.102422,-3.04547 0.142542,-4.035225 l 0.07294,-1.799569 1.812569,2.345878 1.812569,2.345876 0.28881,-0.31403 c 0.158845,-0.17272 1.036244,-1.242805 1.949783,-2.377967 0.913532,-1.135147 1.684138,-2.040743 1.712466,-2.012419 0.04198,0.04199 1.072324,7.704046 1.075233,7.996006 4.92e-4,0.0479 -2.010038,0.0871 -4.467818,0.0871 h -4.468695 z"
       id="path64" />
    <path
       style="opacity:0.7;fill:#241c1c;stroke-width:0.116138"
       d="m 63.959302,86.928422 c -1.190651,-1.668667 -1.669942,-2.432664 -1.656681,-2.640772 0.08995,-1.41163 1.027182,-10.91947 1.076376,-10.91947 0.03514,0 0.681298,0.862324 1.435966,1.91628 0.754668,1.053955 1.383915,1.916282 1.398338,1.916282 0.01442,0 0.803577,-1.01713 1.753688,-2.260293 0.950111,-1.24316 1.740567,-2.247189 1.756578,-2.231185 0.01601,0.01601 -0.0034,2.657906 -0.04258,5.870904 l -0.07169,5.841793 -1.850052,2.283409 c -1.017528,1.25587 -1.911828,2.348114 -1.987324,2.427196 -0.107232,0.112325 -0.503938,-0.370079 -1.812609,-2.204144 z"
       id="path66" />
    <path
       style="opacity:0.7;fill:#241c1c;stroke-width:0.116138"
       d="m 65.019621,71.63599 c -0.648778,-0.952702 -1.179596,-1.822973 -1.179596,-1.933938 0,-0.173488 1.47014,-8.633049 1.550918,-8.924343 0.01608,-0.05809 0.384336,0.378138 0.818292,0.969374 l 0.789008,1.074976 2.386369,-3.207618 c 1.312498,-1.764191 2.402846,-3.191135 2.422995,-3.170986 0.05428,0.05425 -1.675993,11.358177 -1.79141,11.703575 -0.08174,0.244615 -3.690994,5.22115 -3.786666,5.22115 -0.01668,0 -0.561125,-0.779488 -1.20991,-1.73219 z"
       id="path68" />
    <path
       style="opacity:0.7;fill:#241c1c;stroke-width:0.116138"
       d="m 66.413467,58.231115 c -0.217904,-0.224822 -0.366817,-0.499354 -0.366817,-0.676273 0,-0.588458 1.563088,-5.798379 4.053766,-13.511585 l 1.275075,-3.948701 4.251267,-4.223911 c 2.338198,-2.323151 4.278172,-4.197008 4.311051,-4.164127 0.03288,0.03287 -0.202369,0.582182 -0.522776,1.220669 -1.713367,3.414281 -3.976282,9.556814 -5.760694,15.637017 -0.354817,1.208999 -0.686874,2.254244 -0.737902,2.322767 -0.601696,0.807971 -5.974351,7.622609 -6.043217,7.665169 -0.05108,0.03159 -0.258005,-0.112872 -0.459753,-0.321025 z"
       id="path70" />
    <path
       style="opacity:0.7;fill:#241c1c;stroke-width:0.116138"
       d="m 72.272635,95.708455 c -0.03893,-0.31039 -0.258151,-2.64577 -0.48717,-5.189709 -0.362546,-4.027111 -0.39494,-4.650507 -0.250464,-4.819736 2.419218,-2.833807 7.688638,-9.31351 7.774705,-9.5604 0.134669,-0.386306 0.04027,-0.879688 -0.224545,-1.173534 -0.134977,-0.149776 -0.35409,-0.201176 -0.832954,-0.19539 l -0.649795,0.0078 -3.239637,3.82727 c -1.781798,2.105 -3.264282,3.802623 -3.294403,3.772502 -0.0871,-0.08709 0.227332,-12.190182 0.320035,-12.319072 0.04597,-0.06384 1.795847,-2.354603 3.888673,-5.090505 l 3.805138,-4.974366 -0.06068,-0.538371 c -0.07954,-0.705678 -0.475655,-1.068973 -1.164288,-1.067795 l -0.487112,7.97e-4 -2.758285,3.675487 c -1.517059,2.021519 -2.758285,3.581702 -2.758285,3.467078 0,-0.370421 0.932572,-6.323614 1.346558,-8.595959 0.6634,-3.641298 0.200525,-2.792109 5.118934,-9.391173 4.264237,-5.721354 4.335371,-5.825758 4.335371,-6.363095 0,-0.69715 -0.35833,-1.027716 -1.114031,-1.027716 -0.584187,0 -0.413692,-0.191539 -3.698712,4.155252 -1.075458,1.423063 -1.973262,2.569498 -1.995123,2.547636 -0.04227,-0.04227 1.375639,-4.051293 2.391214,-6.760957 2.162876,-5.770796 4.230419,-10.400986 5.089529,-11.397822 0.584371,-0.678051 8.649564,-6.596582 12.764929,-9.367369 2.248771,-1.514047 4.122533,-2.752813 4.163903,-2.752813 0.0414,0 -0.23347,0.352769 -0.610777,0.783933 -3.358471,3.837875 -6.820755,9.139692 -9.385528,14.372115 -8.606412,17.558041 -9.987405,37.032514 -4.060498,57.260277 0.486162,1.659207 1.880508,5.855945 2.202432,6.628925 l 0.150572,0.36154 -7.158968,0.0761 c -3.937433,0.0418 -7.584443,0.10698 -8.104468,0.14473 l -0.945497,0.0687 z"
       id="path72" />
    <path
       style="opacity:0.7;fill:#241c1c;stroke-width:0.116138"
       d="m 188.57255,134.65391 c 0,-0.0468 0.26063,-0.60442 0.57918,-1.23921 2.28914,-4.56164 4.19845,-10.39852 5.29513,-16.18755 1.29139,-6.8169 1.43227,-14.82578 0.38636,-21.966905 -2.15111,-14.68725 -9.20294,-29.082989 -20.97266,-42.81401 -10.71992,-12.506276 -22.99845,-19.635116 -37.55024,-21.801449 -4.60531,-0.685595 -9.57783,-0.66888 -13.73413,0.04617 -6.55888,1.12839 -13.17843,4.082011 -17.76084,7.924822 -0.8928,0.7487 -2.24649,2.190006 -4.11586,4.382237 -3.7029,4.342435 -6.706002,10.40978 -8.277696,16.723915 -1.09127,4.384078 -1.50969,7.809993 -1.602841,13.123629 -0.126854,7.236318 0.566169,13.452461 2.419279,21.699996 0.25613,1.13994 0.442565,2.09576 0.414298,2.12402 -0.102,0.10201 -1.994665,-4.837676 -2.876191,-7.506589 -2.477385,-7.50054 -3.996203,-14.974352 -4.519679,-22.240484 -0.152765,-2.120444 -0.150246,-7.802812 0.0044,-9.871755 0.830098,-11.107359 4.36788,-20.727401 10.646585,-28.950508 5.464615,-7.156909 13.596725,-12.524666 22.272305,-14.701274 3.32282,-0.833658 6.06601,-1.162213 9.69755,-1.161484 3.03475,5.7e-4 4.57652,0.129774 7.49091,0.627559 7.21646,1.232587 14.35092,4.041334 22.12435,8.710086 4.81426,2.891463 9.84563,6.595666 12.52686,9.222542 6.09322,5.969703 12.56275,14.06533 17.40666,21.781754 9.5585,15.226844 14.26861,30.346182 13.92948,44.713243 -0.0781,3.308675 -0.26556,5.339195 -0.77731,8.420025 -1.56631,9.42937 -5.39462,18.45278 -11.4199,26.91695 -1.2556,1.76384 -1.58597,2.18549 -1.58597,2.02427 z"
       id="path74" />
    <path
       style="fill:none;stroke:#000000;stroke-width:0.0812967px;stroke-linecap:butt;stroke-linejoin:miter;stroke-opacity:1"
       d="m 98.890349,104.76358 c 0,0 -20.067993,-50.348254 16.065761,-68.250888 0,0 17.76327,20.68057 16.83505,36.87286 -0.7391,12.893177 -36.708614,6.651895 -36.708614,6.651895 0,0 0.553099,15.207308 3.807803,24.726133 z"
       id="path76" />
    <path
       style="fill:none;stroke:#000000;stroke-width:0.0812967px;stroke-linecap:butt;stroke-linejoin:miter;stroke-opacity:1"
       d="m 145.43277,84.090959 c 0,0 -0.93547,-2.477355 0.21573,-3.18396 0.99578,-0.611206 1.40619,-0.734499 3.12325,0.541815 0,0 2.2695,1.971464 1.5969,4.993947 -0.33851,1.521169 -1.70379,1.310371 -2.81255,0.517299 -0.44811,-0.320527 -1.02245,-0.785576 -1.39277,-1.331119 -0.50062,-0.737485 -0.73056,-1.537982 -0.73056,-1.537982 z"
       id="path78" />
    <path
       style="fill:none;stroke:#000000;stroke-width:0.0812967px;stroke-linecap:butt;stroke-linejoin:miter;stroke-opacity:1"
       d="m 141.22276,83.350576 c 0,0 -0.21238,-9.138906 7.75224,-6.315016 2.83246,1.004262 3.88228,2.909026 4.69801,4.588933 1.22846,2.529893 1.25932,4.655737 0.0927,7.024887 -0.71073,1.443348 -2.36631,3.411571 -5.48754,2.816356 -3.25946,-0.621576 -4.73263,-2.642145 -5.25525,-3.368007 -0.47137,-0.654682 -1.82918,-3.397049 -1.80014,-4.747153 z"
       id="path80" />
    <path
       style="fill:none;stroke:#000000;stroke-width:0.0812967px;stroke-linecap:butt;stroke-linejoin:miter;stroke-opacity:1"
       d="m 105.21989,50.759266 c 0,0 5.92305,-14.052735 13.76238,-0.522622 7.83934,13.53011 4.58746,19.337023 4.58746,19.337023 0,0 -4.41325,9.581415 -13.76238,6.387606 -9.34913,-3.193799 -7.25864,-14.517284 -7.25864,-14.517284 0,0 1.74207,-9.697548 2.67118,-10.684723 z"
       id="path82" />
    <path
       style="fill:none;stroke:#000000;stroke-width:0.0812967px;stroke-linecap:butt;stroke-linejoin:miter;stroke-opacity:1"
       d="m 120.20173,34.383766 11.61383,19.04668 -0.87104,-8.88458 c 0,0 14.74957,3.542219 24.33097,12.542936 0,0 -4.76167,8.710373 -13.82046,7.54899 0,0 10.04596,8.942646 24.27291,-15.910947 0,0 -17.36267,-19.627372 -45.52621,-14.343079 z"
       id="path84" />
    <path
       style="fill:none;stroke:#000000;stroke-width:0.0812967px;stroke-linecap:butt;stroke-linejoin:miter;stroke-opacity:1"
       d="m 156.37881,76.541972 15.27218,-22.182419 c 0,0 27.74204,29.017584 19.22077,66.975997 0,0 -5.68084,-35.763538 -24.27272,-53.709862 z"
       id="path86" />
    <path
       style="opacity:0.7;fill:#241c1c;stroke-width:0.12911"
       d="m 96.530748,96.927205 c -1.31064,-4.903935 -2.200754,-9.702724 -2.736686,-14.754039 -0.281721,-2.655293 -0.392309,-9.029102 -0.200493,-11.555363 0.731998,-9.640575 3.618465,-17.689601 8.542161,-23.820138 2.17242,-2.704903 5.35181,-5.57792 8.3969,-7.58775 1.96423,-1.29644 4.37685,-2.621753 4.4835,-2.462902 0.0467,0.06959 0.70126,0.906806 1.45453,1.860483 6.30671,7.984614 11.29959,16.865873 13.65158,24.283185 1.03502,3.264111 1.5706,6.423979 1.56796,9.250781 -0.002,2.613834 -0.39825,3.680485 -1.92595,5.190078 -0.72216,0.713591 -1.2853,1.126333 -2.14071,1.56898 -5.00974,2.59237 -14.53528,3.217777 -27.04736,1.775811 -2.257431,-0.260151 -4.526609,-0.569861 -5.19669,-0.709249 l -0.355054,-0.07385 2.7e-5,0.752637 c 1.05e-4,3.150351 1.04112,12.386266 1.887289,16.744146 0.177307,0.91315 0.298235,1.68441 0.268731,1.71392 -0.02951,0.0295 -0.321886,-0.95002 -0.649735,-2.17671 z M 115.79144,76.425816 c 1.1139,-0.267032 2.44583,-0.867594 3.48761,-1.572536 1.57478,-1.065607 3.91196,-3.950294 4.52238,-5.58179 0.41699,-1.114508 0.57152,-2.416165 0.4916,-4.140874 -0.16401,-3.539253 -1.28236,-7.295903 -3.50239,-11.764889 -3.04484,-6.129343 -5.59025,-8.877849 -8.38811,-9.057406 -1.66581,-0.106905 -2.96326,0.514689 -4.51262,2.161944 -1.01423,1.078316 -1.73875,2.153443 -2.57248,3.817341 -0.87653,1.74931 -1.30616,3.297066 -2.43572,8.774831 -0.53871,2.612432 -0.55906,2.796071 -0.55815,5.035298 0.001,3.256588 0.48611,5.318935 1.75851,7.480968 0.66774,1.134613 2.34718,2.811775 3.46829,3.463577 2.56571,1.491685 5.63825,2.007515 8.24108,1.383536 z"
       id="path88" />
    <path
       style="opacity:0.7;fill:#241c1c;stroke-width:0.12911"
       d="m 144.49055,65.899985 c -0.45228,-0.09814 -1.20757,-0.366602 -1.67843,-0.596589 l -0.85612,-0.41816 1.67843,-0.09241 c 2.58227,-0.142177 4.38029,-0.739309 6.53865,-2.171524 1.85973,-1.234042 4.14224,-3.589575 4.97486,-5.133986 0.21375,-0.396488 0.21257,-0.424471 -0.0291,-0.694643 -0.37785,-0.422404 -2.68572,-2.287697 -3.93147,-3.177528 -4.16529,-2.975259 -9.67444,-5.722301 -15.52314,-7.740351 -1.67412,-0.577642 -4.76294,-1.499686 -4.81252,-1.436588 -0.015,0.01913 0.1608,1.923016 0.39075,4.230861 0.22995,2.307845 0.41059,4.204155 0.4014,4.214023 -0.009,0.0099 -2.53129,-4.108565 -5.6047,-9.15207 -3.0734,-5.043507 -5.55874,-9.199282 -5.52296,-9.235057 0.10775,-0.107747 1.94737,-0.399395 3.82704,-0.606726 9.24176,-1.019385 18.41968,0.584598 26.92849,4.706172 4.76591,2.30855 8.63112,4.892972 12.3877,8.282865 2.10653,1.900894 2.02985,1.685931 1.13736,3.189057 -6.78932,11.434414 -14.14495,17.169557 -20.30625,15.832657 z"
       id="path90" />
    <path
       style="opacity:0.7;fill:#241c1c;stroke-width:0.12911"
       d="m 190.38752,118.23905 c -0.27569,-1.37347 -0.81518,-3.77489 -1.19888,-5.33647 -4.64504,-18.904855 -12.2666,-34.784004 -21.0347,-43.824779 l -1.56078,-1.609299 -4.5503,3.97409 c -2.50267,2.185752 -4.57604,3.948362 -4.60748,3.916918 -0.0315,-0.03142 3.1498,-4.714622 7.06945,-10.407047 l 7.12661,-10.349867 0.37645,0.357822 c 0.20706,0.196802 0.94279,1.055017 1.63498,1.907144 6.94015,8.543742 12.63353,19.24171 15.68083,29.464527 3.26352,10.948186 3.92565,22.284901 1.90691,32.649211 l -0.34184,1.75499 z"
       id="path92" />
    <path
       style="opacity:0.7;fill:#241c1c;stroke-width:0.12911"
       d="m 147.64296,91.213098 c -2.25111,-0.642405 -4.13157,-2.22827 -5.15305,-4.345747 -0.98976,-2.051752 -1.15312,-2.685638 -1.07663,-4.17774 0.14646,-2.856855 1.12797,-4.769953 2.89302,-5.638882 0.77163,-0.379875 0.96243,-0.419832 1.96351,-0.411138 2.14068,0.0186 4.67367,1.195229 5.90603,2.743541 0.8334,1.047051 1.92377,3.348112 2.17863,4.597578 0.5577,2.734312 -0.8098,5.882827 -3.06443,7.055535 -0.70009,0.364132 -2.6581,0.459085 -3.64708,0.176853 z m 2.23823,-3.763289 c 0.45807,-0.320839 0.66064,-0.960569 0.66064,-2.086296 0,-1.574592 -0.63057,-3.036829 -1.72275,-3.994875 -1.28221,-1.124728 -2.40605,-1.269576 -3.34451,-0.431079 -0.35922,0.320966 -0.41127,0.45641 -0.45594,1.186303 -0.0993,1.623618 0.80685,3.633697 2.08151,4.617074 1.17159,0.90388 2.1475,1.15263 2.78105,0.708873 z"
       id="path94" />
    <text
       xml:space="preserve"
       style="font-style:normal;font-weight:normal;font-size:28.7916px;line-height:1.25;font-family:sans-serif;fill:#241c1c;fill-opacity:1;stroke:none;stroke-width:0.385604"
       x="21.095097"
       y="96.107002"
       id="text98"
       transform="scale(0.75616865,1.3224563)"><tspan
         id="tspan96"
         x="21.095097"
         y="96.107002"
         style="font-style:normal;font-variant:normal;font-weight:bold;font-stretch:normal;font-size:28.7916px;font-family:Forvertz;-inkscape-font-specification:'Forvertz Bold';fill:#241c1c;stroke-width:0.385604">Llanta Sur</tspan></text>
  </g>
</svg>
