<svg id="svg" version="1.1" xmlns="http://www.w3.org/2000/svg" xmlns:xlink="http://www.w3.org/1999/xlink" width="400" height="418.6363636363636" viewBox="0, 0, 400,418.6363636363636"><g id="svgg"><path id="path0" d="M29.091 18.606 C 22.252 19.007,20.491 19.862,18.856 23.578 C 17.930 25.683,18.001 26.491,19.343 29.140 C 21.195 32.794,21.400 32.838,38.636 33.236 C 60.798 33.748,66.272 35.786,71.062 45.311 C 73.744 50.646,87.822 81.899,97.948 105.000 C 101.036 112.046,105.004 121.041,130.229 178.182 C 142.996 207.103,167.586 263.044,171.489 272.045 C 174.917 279.951,175.154 279.067,168.685 282.495 C 149.788 292.507,140.320 308.197,140.290 329.545 C 140.221 380.251,204.246 401.196,234.911 360.499 C 242.271 350.733,245.260 340.926,245.127 326.982 L 245.053 319.190 247.185 318.286 C 281.561 303.708,341.777 277.540,346.947 274.933 C 353.309 271.726,352.902 263.588,346.291 261.800 C 343.560 261.062,341.837 261.749,278.740 288.717 C 257.672 297.722,240.128 304.972,239.753 304.828 C 238.887 304.496,233.636 296.414,233.636 295.413 C 233.636 294.939,234.593 294.241,236.250 293.508 C 237.688 292.872,243.364 290.312,248.864 287.820 C 254.364 285.328,272.261 277.257,288.636 269.884 C 342.395 245.680,368.280 233.838,376.826 229.542 C 382.837 226.519,383.018 225.232,378.845 215.182 C 372.376 199.601,343.454 136.501,342.126 135.069 C 340.905 133.753,338.090 132.273,336.810 132.273 C 335.450 132.273,279.115 157.365,203.427 191.683 C 178.648 202.917,179.761 202.340,178.644 204.531 C 176.931 207.888,177.026 208.167,188.539 233.636 C 205.680 271.554,208.653 278.407,208.019 278.544 C 207.677 278.618,205.375 278.272,202.903 277.774 C 200.431 277.276,196.435 276.729,194.022 276.557 L 189.635 276.246 186.121 268.236 C 182.834 260.744,172.340 236.961,145.583 176.364 C 104.820 84.050,90.476 51.921,85.007 40.682 C 75.921 22.011,62.363 16.658,29.091 18.606 M258.864 42.353 C 249.483 45.537,207.064 63.781,160.455 84.677 C 132.362 97.271,132.273 97.322,132.273 100.815 C 132.273 103.409,136.824 114.103,154.080 152.045 C 171.874 191.174,173.415 193.754,178.085 192.239 C 185.959 189.685,292.470 143.173,301.126 138.509 C 306.037 135.863,306.781 133.583,304.561 127.994 C 300.488 117.742,278.438 69.379,269.311 50.679 C 264.842 41.526,263.785 40.682,258.864 42.353 M195.712 314.581 C 207.405 316.703,211.701 331.481,203.120 340.062 C 195.930 347.252,183.537 345.265,179.100 336.211 C 173.359 324.496,182.777 312.232,195.712 314.581 " stroke="none" fill="#000000" fill-rule="evenodd"></path></g></svg>